<svg width="166" height="57" viewBox="0 0 166 57" fill="none" xmlns="http://www.w3.org/2000/svg">
<g clip-path="url(#clip0_59215_1356)">
<path d="M2.64358 15H0V34.0926H2.64358V27.0094C2.64358 25.8111 2.94164 24.8658 3.53774 24.2001C4.13384 23.5344 4.95024 23.1882 5.96102 23.1882C6.82926 23.1882 7.55495 23.5078 8.13809 24.1202C8.72124 24.746 9.01929 25.5315 9.01929 26.4769V34.1059H11.6758V26.4769C11.6758 24.7194 11.1964 23.3347 10.2374 22.2962C9.27846 21.2577 8.02146 20.7384 6.49233 20.7384C6.05173 20.7384 5.61114 20.7917 5.1835 20.9115C4.7429 21.0313 4.39301 21.1645 4.10792 21.3109C3.82283 21.4574 3.5507 21.6172 3.30448 21.8036C3.05826 21.99 2.8898 22.1231 2.81205 22.203C2.7343 22.2829 2.6695 22.3361 2.64358 22.3761V15Z" fill="#F0145A"/>
<path d="M17.5856 15H14.8604V34.0767H17.5856V15Z" fill="#323264"/>
<path d="M33.6598 28.4896L33.796 27.127C33.796 25.3011 33.1965 23.7749 31.9701 22.5486C30.7438 21.3222 29.2176 20.7227 27.3917 20.7227C25.5658 20.7227 23.9851 21.3767 22.677 22.6848C21.3689 23.993 20.7148 25.5463 20.7148 27.3995C20.7148 29.3072 21.3962 30.9423 22.7315 32.305C24.0669 33.6676 25.6748 34.3489 27.528 34.3489C28.2365 34.3489 28.8906 34.2399 29.5446 34.0491C30.1987 33.8311 30.7438 33.6131 31.1253 33.3951C31.5341 33.1498 31.9429 32.8773 32.2971 32.5775C32.6514 32.2777 32.8967 32.0597 33.0057 31.9234C33.1147 31.7872 33.1965 31.7054 33.251 31.6236L31.4796 29.8522L31.0708 30.37C30.7983 30.6971 30.335 31.0241 29.6809 31.3784C28.9996 31.7327 28.291 31.8962 27.528 31.8962C26.4651 31.8962 25.5658 31.5691 24.8027 30.8878C24.0396 30.2065 23.5764 29.4162 23.4401 28.4896H33.6598ZM27.3917 23.0391C28.4 23.0391 29.2176 23.3389 29.8989 23.9112C30.553 24.5108 30.9618 25.2466 31.1253 26.1732H23.5491C23.7944 25.2466 24.2304 24.5108 24.9117 23.9112C25.5658 23.3389 26.4106 23.0391 27.3917 23.0391Z" fill="#323264"/>
<path d="M46.3695 33.286C46.3695 34.4852 46.0153 35.4662 45.2794 36.2293C44.5709 36.9651 43.6715 37.3467 42.5542 37.3467C42.0637 37.3467 41.5731 37.2649 41.1098 37.1286C40.6465 36.9924 40.2922 36.8289 39.9925 36.6381C39.6927 36.4473 39.4202 36.2566 39.1476 36.0113C38.9024 35.766 38.7389 35.6025 38.6571 35.5207C38.5753 35.439 38.5208 35.3572 38.4663 35.3027L36.6949 37.0741L36.9129 37.3467C37.0492 37.5374 37.2945 37.7827 37.6215 38.0552C37.9485 38.3005 38.3301 38.573 38.7661 38.8455C39.2021 39.0908 39.7472 39.3088 40.4285 39.4996C41.1098 39.6904 41.8184 39.7994 42.5542 39.7994C44.4074 39.7994 45.9335 39.1726 47.2144 37.919C48.468 36.6381 49.0948 35.112 49.0948 33.2588V20.9952H46.3695V22.3578L45.9062 21.949C45.6065 21.6765 45.1432 21.404 44.4891 21.1314C43.8351 20.8589 43.1265 20.7227 42.4179 20.7227C40.7555 20.7227 39.3384 21.3495 38.112 22.6303C36.8857 23.9112 36.2861 25.4373 36.2861 27.2632C36.2861 29.0892 36.8857 30.6153 38.112 31.8962C39.3384 33.177 40.7555 33.8038 42.4179 33.8038C42.8812 33.8038 43.3173 33.7493 43.7806 33.6403C44.2166 33.5041 44.5709 33.3678 44.8707 33.2315C45.1704 33.0953 45.443 32.9318 45.6882 32.741C45.9335 32.5502 46.1243 32.414 46.1788 32.3595L46.3695 32.1687V33.286ZM39.0114 27.2632C39.0114 26.1186 39.3657 25.1648 40.1015 24.3745C40.8373 23.5842 41.7094 23.1754 42.6905 23.1754C43.6715 23.1754 44.5436 23.5842 45.2794 24.3745C45.988 25.1648 46.3695 26.1186 46.3695 27.2632C46.3695 28.4079 45.988 29.3617 45.2794 30.152C44.5436 30.9423 43.6715 31.3511 42.6905 31.3511C41.7094 31.3511 40.8373 30.9423 40.1015 30.152C39.3657 29.3617 39.0114 28.4079 39.0114 27.2632Z" fill="#323264"/>
<path d="M63.3195 34.0764V25.6281C63.3195 24.2382 62.8017 23.0664 61.7934 22.1398C60.7851 21.1859 59.4769 20.7227 57.869 20.7227C57.2422 20.7227 56.6154 20.8044 56.0159 20.9679C55.4163 21.1587 54.9258 21.3495 54.5715 21.5675C54.2172 21.7855 53.8629 22.0308 53.5359 22.3306C53.2089 22.6031 53.0181 22.7938 52.9091 22.9029C52.8273 23.0119 52.7456 23.0936 52.6911 23.1754L54.4625 24.9468L54.8168 24.4835C55.0348 24.1837 55.4163 23.9112 55.9886 23.6114C56.5609 23.3116 57.1877 23.1754 57.869 23.1754C58.6594 23.1754 59.3134 23.4207 59.8312 23.8839C60.349 24.3472 60.5943 24.9468 60.5943 25.6281L55.8251 26.4457C54.6533 26.6364 53.6994 27.0997 53.0454 27.8356C52.364 28.5714 52.0098 29.4707 52.0098 30.5335C52.0098 31.5419 52.4458 32.414 53.3179 33.177C54.2172 33.9674 55.3073 34.3489 56.6427 34.3489C57.106 34.3489 57.542 34.2944 57.9781 34.1581C58.4413 34.0491 58.7956 33.9129 59.0954 33.7766C59.3952 33.6403 59.6677 33.4768 59.913 33.286C60.1583 33.0953 60.3218 32.959 60.4308 32.9045C60.5125 32.8228 60.567 32.741 60.5943 32.7137V34.0764H63.3195ZM57.0515 31.8962C56.3429 31.8962 55.7706 31.7327 55.3618 31.4056C54.9258 31.0786 54.735 30.6971 54.735 30.261C54.735 29.7977 54.8713 29.3889 55.1711 29.0892C55.4708 28.7894 55.8796 28.5714 56.3702 28.4896L60.5943 27.8083V28.0808C60.5943 29.3072 60.2945 30.2338 59.6677 30.9151C59.0409 31.5691 58.1688 31.8962 57.0515 31.8962Z" fill="#323264"/>
<path d="M69.3337 15H66.6084V34.0767H69.3337V15Z" fill="#323264"/>
<path d="M0 43.3298H0.852878V46.3201H2.70078V47.0151H0V43.3298Z" fill="#323264"/>
<path d="M8.26752 46.2254H6.5565L6.23009 47.0151H5.35615L6.99873 43.3298H7.84108L9.48893 47.0151H8.59393L8.26752 46.2254ZM7.99902 45.5778L7.41464 44.1669L6.83026 45.5778H7.99902Z" fill="#323264"/>
<path d="M17.8731 43.3298L16.6675 47.0151H15.7515L14.9407 44.5196L14.1036 47.0151H13.1928L11.982 43.3298H12.8664L13.6982 45.92L14.5669 43.3298H15.3566L16.199 45.9411L17.0571 43.3298H17.8731Z" fill="#323264"/>
<path d="M26.9457 47.0782C26.5702 47.0782 26.2297 46.9975 25.9244 46.8361C25.6225 46.6711 25.3838 46.4447 25.2084 46.1569C25.0364 45.8656 24.9504 45.5374 24.9504 45.1724C24.9504 44.8074 25.0364 44.481 25.2084 44.1932C25.3838 43.9019 25.6225 43.6755 25.9244 43.514C26.2297 43.3491 26.5719 43.2666 26.951 43.2666C27.2704 43.2666 27.5582 43.3228 27.8144 43.4351C28.0741 43.5474 28.2917 43.7088 28.4672 43.9194L27.9197 44.4248C27.6705 44.137 27.3616 43.9931 26.9931 43.9931C26.7649 43.9931 26.5614 44.044 26.3824 44.1458C26.2034 44.2441 26.063 44.3827 25.9612 44.5617C25.8629 44.7407 25.8138 44.9443 25.8138 45.1724C25.8138 45.4006 25.8629 45.6041 25.9612 45.7831C26.063 45.9621 26.2034 46.1025 26.3824 46.2043C26.5614 46.3026 26.7649 46.3517 26.9931 46.3517C27.3616 46.3517 27.6705 46.206 27.9197 45.9147L28.4672 46.4201C28.2917 46.6342 28.0741 46.7974 27.8144 46.9098C27.5547 47.0221 27.2651 47.0782 26.9457 47.0782Z" fill="#323264"/>
<path d="M33.3831 47.0782C33.0005 47.0782 32.6548 46.9958 32.3459 46.8308C32.0406 46.6658 31.8002 46.4395 31.6247 46.1516C31.4527 45.8603 31.3667 45.5339 31.3667 45.1724C31.3667 44.8109 31.4527 44.4863 31.6247 44.1985C31.8002 43.9071 32.0406 43.679 32.3459 43.514C32.6548 43.3491 33.0005 43.2666 33.3831 43.2666C33.7657 43.2666 34.1096 43.3491 34.415 43.514C34.7203 43.679 34.9607 43.9071 35.1362 44.1985C35.3117 44.4863 35.3995 44.8109 35.3995 45.1724C35.3995 45.5339 35.3117 45.8603 35.1362 46.1516C34.9607 46.4395 34.7203 46.6658 34.415 46.8308C34.1096 46.9958 33.7657 47.0782 33.3831 47.0782ZM33.3831 46.3517C33.6007 46.3517 33.7972 46.3026 33.9727 46.2043C34.1482 46.1025 34.2851 45.9621 34.3834 45.7831C34.4852 45.6041 34.5361 45.4006 34.5361 45.1724C34.5361 44.9443 34.4852 44.7407 34.3834 44.5617C34.2851 44.3827 34.1482 44.2441 33.9727 44.1458C33.7972 44.044 33.6007 43.9931 33.3831 43.9931C33.1655 43.9931 32.9689 44.044 32.7934 44.1458C32.618 44.2441 32.4793 44.3827 32.3775 44.5617C32.2793 44.7407 32.2301 44.9443 32.2301 45.1724C32.2301 45.4006 32.2793 45.6041 32.3775 45.7831C32.4793 45.9621 32.618 46.1025 32.7934 46.2043C32.9689 46.3026 33.1655 46.3517 33.3831 46.3517Z" fill="#323264"/>
<path d="M42.0264 47.0151L42.0211 44.8039L40.9366 46.6255H40.5523L39.473 44.8513V47.0151H38.6728V43.3298H39.3782L40.7576 45.6199L42.1159 43.3298H42.8161L42.8266 47.0151H42.0264Z" fill="#323264"/>
<path d="M47.9285 43.3298C48.2549 43.3298 48.5374 43.3842 48.7761 43.493C49.0183 43.6018 49.2043 43.7562 49.3342 43.9563C49.464 44.1563 49.529 44.3932 49.529 44.667C49.529 44.9373 49.464 45.1742 49.3342 45.3777C49.2043 45.5778 49.0183 45.7322 48.7761 45.841C48.5374 45.9463 48.2549 45.999 47.9285 45.999H47.1862V47.0151H46.3333V43.3298H47.9285ZM47.8811 45.304C48.1373 45.304 48.3321 45.2496 48.4655 45.1408C48.5989 45.0285 48.6656 44.8706 48.6656 44.667C48.6656 44.4599 48.5989 44.302 48.4655 44.1932C48.3321 44.0809 48.1373 44.0247 47.8811 44.0247H47.1862V45.304H47.8811Z" fill="#323264"/>
<path d="M55.0121 46.2254H53.3011L52.9747 47.0151H52.1008L53.7433 43.3298H54.5857L56.2335 47.0151H55.3385L55.0121 46.2254ZM54.7436 45.5778L54.1592 44.1669L53.5749 45.5778H54.7436Z" fill="#323264"/>
<path d="M62.6281 43.3298V47.0151H61.9279L60.0906 44.7776V47.0151H59.2482V43.3298H59.9537L61.7858 45.5673V43.3298H62.6281Z" fill="#323264"/>
<path d="M67.9013 45.7094V47.0151H67.0485V45.6989L65.6217 43.3298H66.5273L67.5117 44.9671L68.4963 43.3298H69.3333L67.9013 45.7094Z" fill="#323264"/>
<path fill-rule="evenodd" clip-rule="evenodd" d="M81.7283 15H84.9505L76.5557 41H73.3335L81.7283 15Z" fill="#F0145A"/>
<path d="M95.2902 34.1C94.2502 34.1 93.3169 33.8733 92.4902 33.42C91.6769 32.9533 91.0369 32.32 90.5702 31.52C90.1035 30.7067 89.8702 29.78 89.8702 28.74C89.8702 27.6867 90.1035 26.76 90.5702 25.96C91.0369 25.16 91.6769 24.5333 92.4902 24.08C93.3169 23.6267 94.2502 23.4 95.2902 23.4C96.1835 23.4 96.9902 23.5733 97.7102 23.92C98.4302 24.2667 98.9969 24.7867 99.4102 25.48L98.3502 26.2C97.9902 25.6667 97.5435 25.2733 97.0102 25.02C96.4769 24.7667 95.8969 24.64 95.2702 24.64C94.5235 24.64 93.8502 24.8133 93.2502 25.16C92.6502 25.4933 92.1769 25.9667 91.8302 26.58C91.4835 27.1933 91.3102 27.9133 91.3102 28.74C91.3102 29.5667 91.4835 30.2867 91.8302 30.9C92.1769 31.5133 92.6502 31.9933 93.2502 32.34C93.8502 32.6733 94.5235 32.84 95.2702 32.84C95.8969 32.84 96.4769 32.7133 97.0102 32.46C97.5435 32.2067 97.9902 31.82 98.3502 31.3L99.4102 32.02C98.9969 32.7 98.4302 33.22 97.7102 33.58C96.9902 33.9267 96.1835 34.1 95.2902 34.1ZM106.304 34.1C105.291 34.1 104.377 33.8733 103.564 33.42C102.764 32.9533 102.131 32.32 101.664 31.52C101.197 30.7067 100.964 29.78 100.964 28.74C100.964 27.6867 101.197 26.76 101.664 25.96C102.131 25.16 102.764 24.5333 103.564 24.08C104.364 23.6267 105.277 23.4 106.304 23.4C107.344 23.4 108.264 23.6267 109.064 24.08C109.877 24.5333 110.511 25.16 110.964 25.96C111.431 26.76 111.664 27.6867 111.664 28.74C111.664 29.78 111.431 30.7067 110.964 31.52C110.511 32.32 109.877 32.9533 109.064 33.42C108.251 33.8733 107.331 34.1 106.304 34.1ZM106.304 32.84C107.064 32.84 107.737 32.6733 108.324 32.34C108.911 31.9933 109.371 31.5133 109.704 30.9C110.051 30.2733 110.224 29.5533 110.224 28.74C110.224 27.9133 110.051 27.1933 109.704 26.58C109.371 25.9667 108.911 25.4933 108.324 25.16C107.737 24.8133 107.071 24.64 106.324 24.64C105.577 24.64 104.911 24.8133 104.324 25.16C103.737 25.4933 103.271 25.9667 102.924 26.58C102.577 27.1933 102.404 27.9133 102.404 28.74C102.404 29.5533 102.577 30.2733 102.924 30.9C103.271 31.5133 103.737 31.9933 104.324 32.34C104.911 32.6733 105.571 32.84 106.304 32.84ZM119.923 23.4C120.776 23.4 121.523 23.5667 122.163 23.9C122.816 24.22 123.323 24.7133 123.683 25.38C124.056 26.0467 124.243 26.8867 124.243 27.9V34H122.823V28.04C122.823 26.9333 122.543 26.1 121.983 25.54C121.436 24.9667 120.663 24.68 119.663 24.68C118.916 24.68 118.263 24.8333 117.703 25.14C117.156 25.4333 116.73 25.8667 116.423 26.44C116.13 27 115.983 27.68 115.983 28.48V34H114.563V23.5H115.923V26.38L115.703 25.84C116.036 25.08 116.57 24.4867 117.303 24.06C118.036 23.62 118.91 23.4 119.923 23.4ZM131.399 34.1C130.412 34.1 129.652 33.8333 129.119 33.3C128.585 32.7667 128.319 32.0133 128.319 31.04V21.18H129.739V30.96C129.739 31.5733 129.892 32.0467 130.199 32.38C130.519 32.7133 130.972 32.88 131.559 32.88C132.185 32.88 132.705 32.7 133.119 32.34L133.619 33.36C133.339 33.6133 132.999 33.8 132.599 33.92C132.212 34.04 131.812 34.1 131.399 34.1ZM126.439 24.68V23.5H132.939V24.68H126.439ZM142.784 34V31.68L142.724 31.3V27.42C142.724 26.5267 142.47 25.84 141.964 25.36C141.47 24.88 140.73 24.64 139.744 24.64C139.064 24.64 138.417 24.7533 137.804 24.98C137.19 25.2067 136.67 25.5067 136.244 25.88L135.604 24.82C136.137 24.3667 136.777 24.02 137.524 23.78C138.27 23.5267 139.057 23.4 139.884 23.4C141.244 23.4 142.29 23.74 143.024 24.42C143.77 25.0867 144.144 26.1067 144.144 27.48V34H142.784ZM139.164 34.1C138.377 34.1 137.69 33.9733 137.104 33.72C136.53 33.4533 136.09 33.0933 135.784 32.64C135.477 32.1733 135.324 31.64 135.324 31.04C135.324 30.4933 135.45 30 135.704 29.56C135.97 29.1067 136.397 28.7467 136.984 28.48C137.584 28.2 138.384 28.06 139.384 28.06H143.004V29.12H139.424C138.41 29.12 137.704 29.3 137.304 29.66C136.917 30.02 136.724 30.4667 136.724 31C136.724 31.6 136.957 32.08 137.424 32.44C137.89 32.8 138.544 32.98 139.384 32.98C140.184 32.98 140.87 32.8 141.444 32.44C142.03 32.0667 142.457 31.5333 142.724 30.84L143.044 31.82C142.777 32.5133 142.31 33.0667 141.644 33.48C140.99 33.8933 140.164 34.1 139.164 34.1ZM152.361 34.1C151.321 34.1 150.387 33.8733 149.561 33.42C148.747 32.9533 148.107 32.32 147.641 31.52C147.174 30.7067 146.941 29.78 146.941 28.74C146.941 27.6867 147.174 26.76 147.641 25.96C148.107 25.16 148.747 24.5333 149.561 24.08C150.387 23.6267 151.321 23.4 152.361 23.4C153.254 23.4 154.061 23.5733 154.781 23.92C155.501 24.2667 156.067 24.7867 156.481 25.48L155.421 26.2C155.061 25.6667 154.614 25.2733 154.081 25.02C153.547 24.7667 152.967 24.64 152.341 24.64C151.594 24.64 150.921 24.8133 150.321 25.16C149.721 25.4933 149.247 25.9667 148.901 26.58C148.554 27.1933 148.381 27.9133 148.381 28.74C148.381 29.5667 148.554 30.2867 148.901 30.9C149.247 31.5133 149.721 31.9933 150.321 32.34C150.921 32.6733 151.594 32.84 152.341 32.84C152.967 32.84 153.547 32.7133 154.081 32.46C154.614 32.2067 155.061 31.82 155.421 31.3L156.481 32.02C156.067 32.7 155.501 33.22 154.781 33.58C154.061 33.9267 153.254 34.1 152.361 34.1ZM162.707 34.1C161.721 34.1 160.961 33.8333 160.427 33.3C159.894 32.7667 159.627 32.0133 159.627 31.04V21.18H161.047V30.96C161.047 31.5733 161.201 32.0467 161.507 32.38C161.827 32.7133 162.281 32.88 162.867 32.88C163.494 32.88 164.014 32.7 164.427 32.34L164.927 33.36C164.647 33.6133 164.307 33.8 163.907 33.92C163.521 34.04 163.121 34.1 162.707 34.1ZM157.747 24.68V23.5H164.247V24.68H157.747Z" fill="#323264"/>
</g>
<defs>
<clipPath id="clip0_59215_1356">
<rect width="165.95" height="57" fill="white"/>
</clipPath>
</defs>
</svg>
