<svg width="142" height="57" viewBox="0 0 142 57" fill="none" xmlns="http://www.w3.org/2000/svg">
<g clip-path="url(#clip0_59215_1391)">
<path d="M2.64358 15.0001H0V34.0926H2.64358V27.0095C2.64358 25.8112 2.94164 24.8659 3.53774 24.2002C4.13384 23.5345 4.95024 23.1883 5.96102 23.1883C6.82926 23.1883 7.55495 23.5078 8.13809 24.1203C8.72124 24.7461 9.01929 25.5316 9.01929 26.4769V34.106H11.6758V26.4769C11.6758 24.7194 11.1964 23.3348 10.2374 22.2963C9.27846 21.2577 8.02146 20.7385 6.49233 20.7385C6.05173 20.7385 5.61114 20.7917 5.1835 20.9116C4.7429 21.0314 4.39301 21.1645 4.10792 21.311C3.82283 21.4575 3.5507 21.6172 3.30448 21.8036C3.05826 21.99 2.8898 22.1232 2.81205 22.2031C2.7343 22.2829 2.6695 22.3362 2.64358 22.3761V15.0001Z" fill="#F0145A"/>
<path d="M17.5856 15H14.8604V34.0767H17.5856V15Z" fill="#323264"/>
<path d="M33.6598 28.4897L33.796 27.127C33.796 25.3011 33.1965 23.775 31.9701 22.5486C30.7438 21.3223 29.2176 20.7227 27.3917 20.7227C25.5658 20.7227 23.9851 21.3768 22.677 22.6849C21.3689 23.993 20.7148 25.5464 20.7148 27.3996C20.7148 29.3072 21.3962 30.9424 22.7315 32.305C24.0669 33.6676 25.6748 34.349 27.528 34.349C28.2365 34.349 28.8906 34.2399 29.5446 34.0492C30.1987 33.8312 30.7438 33.6131 31.1253 33.3951C31.5341 33.1498 31.9429 32.8773 32.2971 32.5775C32.6514 32.2778 32.8967 32.0597 33.0057 31.9235C33.1147 31.7872 33.1965 31.7055 33.251 31.6237L31.4796 29.8523L31.0708 30.3701C30.7983 30.6971 30.335 31.0242 29.6809 31.3784C28.9996 31.7327 28.291 31.8962 27.528 31.8962C26.4651 31.8962 25.5658 31.5692 24.8027 30.8879C24.0396 30.2066 23.5764 29.4163 23.4401 28.4897H33.6598ZM27.3917 23.0392C28.4 23.0392 29.2176 23.339 29.8989 23.9113C30.553 24.5108 30.9618 25.2466 31.1253 26.1732H23.5491C23.7944 25.2466 24.2304 24.5108 24.9117 23.9113C25.5658 23.339 26.4106 23.0392 27.3917 23.0392Z" fill="#323264"/>
<path d="M46.3695 33.2861C46.3695 34.4852 46.0153 35.4663 45.2794 36.2294C44.5709 36.9652 43.6715 37.3467 42.5542 37.3467C42.0637 37.3467 41.5731 37.265 41.1098 37.1287C40.6465 36.9924 40.2922 36.8289 39.9925 36.6382C39.6927 36.4474 39.4202 36.2566 39.1476 36.0113C38.9024 35.7661 38.7389 35.6026 38.6571 35.5208C38.5753 35.439 38.5208 35.3573 38.4663 35.3028L36.6949 37.0742L36.9129 37.3467C37.0492 37.5375 37.2945 37.7828 37.6215 38.0553C37.9485 38.3006 38.3301 38.5731 38.7661 38.8456C39.2021 39.0909 39.7472 39.3089 40.4285 39.4997C41.1098 39.6904 41.8184 39.7994 42.5542 39.7994C44.4074 39.7994 45.9335 39.1726 47.2144 37.919C48.468 36.6382 49.0948 35.112 49.0948 33.2589V20.9952H46.3695V22.3579L45.9062 21.9491C45.6065 21.6766 45.1432 21.404 44.4891 21.1315C43.8351 20.859 43.1265 20.7227 42.4179 20.7227C40.7555 20.7227 39.3384 21.3495 38.112 22.6304C36.8857 23.9113 36.2861 25.4374 36.2861 27.2633C36.2861 29.0892 36.8857 30.6154 38.112 31.8962C39.3384 33.1771 40.7555 33.8039 42.4179 33.8039C42.8812 33.8039 43.3173 33.7494 43.7806 33.6404C44.2166 33.5041 44.5709 33.3679 44.8707 33.2316C45.1704 33.0953 45.443 32.9318 45.6882 32.7411C45.9335 32.5503 46.1243 32.414 46.1788 32.3595L46.3695 32.1688V33.2861ZM39.0114 27.2633C39.0114 26.1187 39.3657 25.1649 40.1015 24.3745C40.8373 23.5842 41.7094 23.1754 42.6905 23.1754C43.6715 23.1754 44.5436 23.5842 45.2794 24.3745C45.988 25.1649 46.3695 26.1187 46.3695 27.2633C46.3695 28.4079 45.988 29.3617 45.2794 30.1521C44.5436 30.9424 43.6715 31.3512 42.6905 31.3512C41.7094 31.3512 40.8373 30.9424 40.1015 30.1521C39.3657 29.3617 39.0114 28.4079 39.0114 27.2633Z" fill="#323264"/>
<path d="M63.3195 34.0764V25.6282C63.3195 24.2383 62.8017 23.0664 61.7934 22.1398C60.7851 21.186 59.4769 20.7227 57.869 20.7227C57.2422 20.7227 56.6154 20.8045 56.0159 20.968C55.4163 21.1588 54.9258 21.3495 54.5715 21.5675C54.2172 21.7856 53.8629 22.0308 53.5359 22.3306C53.2089 22.6031 53.0181 22.7939 52.9091 22.9029C52.8273 23.0119 52.7456 23.0937 52.6911 23.1754L54.4625 24.9469L54.8168 24.4836C55.0348 24.1838 55.4163 23.9113 55.9886 23.6115C56.5609 23.3117 57.1877 23.1754 57.869 23.1754C58.6594 23.1754 59.3134 23.4207 59.8312 23.884C60.349 24.3473 60.5943 24.9469 60.5943 25.6282L55.8251 26.4457C54.6533 26.6365 53.6994 27.0998 53.0454 27.8356C52.364 28.5714 52.0098 29.4708 52.0098 30.5336C52.0098 31.542 52.4458 32.414 53.3179 33.1771C54.2172 33.9674 55.3073 34.349 56.6427 34.349C57.106 34.349 57.542 34.2945 57.9781 34.1582C58.4413 34.0492 58.7956 33.9129 59.0954 33.7767C59.3952 33.6404 59.6677 33.4769 59.913 33.2861C60.1583 33.0953 60.3218 32.9591 60.4308 32.9046C60.5125 32.8228 60.567 32.7411 60.5943 32.7138V34.0764H63.3195ZM57.0515 31.8962C56.3429 31.8962 55.7706 31.7327 55.3618 31.4057C54.9258 31.0787 54.735 30.6971 54.735 30.2611C54.735 29.7978 54.8713 29.389 55.1711 29.0892C55.4708 28.7895 55.8796 28.5714 56.3702 28.4897L60.5943 27.8084V28.0809C60.5943 29.3072 60.2945 30.2338 59.6677 30.9151C59.0409 31.5692 58.1688 31.8962 57.0515 31.8962Z" fill="#323264"/>
<path d="M69.3337 15H66.6084V34.0767H69.3337V15Z" fill="#323264"/>
<path d="M0 43.3298H0.852878V46.3202H2.70078V47.0151H0V43.3298Z" fill="#323264"/>
<path d="M8.26752 46.2254H6.5565L6.23009 47.0151H5.35615L6.99873 43.3298H7.84108L9.48893 47.0151H8.59393L8.26752 46.2254ZM7.99902 45.5779L7.41464 44.1669L6.83026 45.5779H7.99902Z" fill="#323264"/>
<path d="M17.8731 43.3298L16.6675 47.0151H15.7515L14.9407 44.5197L14.1036 47.0151H13.1928L11.982 43.3298H12.8664L13.6982 45.9201L14.5669 43.3298H15.3566L16.199 45.9411L17.0571 43.3298H17.8731Z" fill="#323264"/>
<path d="M26.9457 47.0783C26.5702 47.0783 26.2297 46.9976 25.9244 46.8361C25.6225 46.6712 25.3838 46.4448 25.2084 46.157C25.0364 45.8657 24.9504 45.5375 24.9504 45.1725C24.9504 44.8075 25.0364 44.481 25.2084 44.1932C25.3838 43.9019 25.6225 43.6756 25.9244 43.5141C26.2297 43.3491 26.5719 43.2667 26.951 43.2667C27.2704 43.2667 27.5582 43.3228 27.8144 43.4351C28.0741 43.5474 28.2917 43.7089 28.4672 43.9195L27.9197 44.4249C27.6705 44.1371 27.3616 43.9932 26.9931 43.9932C26.7649 43.9932 26.5614 44.0441 26.3824 44.1459C26.2034 44.2441 26.063 44.3828 25.9612 44.5618C25.8629 44.7408 25.8138 44.9443 25.8138 45.1725C25.8138 45.4006 25.8629 45.6042 25.9612 45.7832C26.063 45.9622 26.2034 46.1026 26.3824 46.2044C26.5614 46.3026 26.7649 46.3518 26.9931 46.3518C27.3616 46.3518 27.6705 46.2061 27.9197 45.9148L28.4672 46.4202C28.2917 46.6343 28.0741 46.7975 27.8144 46.9098C27.5547 47.0221 27.2651 47.0783 26.9457 47.0783Z" fill="#323264"/>
<path d="M33.3831 47.0783C33.0005 47.0783 32.6548 46.9958 32.3459 46.8309C32.0406 46.6659 31.8002 46.4395 31.6247 46.1517C31.4527 45.8604 31.3667 45.534 31.3667 45.1725C31.3667 44.811 31.4527 44.4863 31.6247 44.1985C31.8002 43.9072 32.0406 43.6791 32.3459 43.5141C32.6548 43.3491 33.0005 43.2667 33.3831 43.2667C33.7657 43.2667 34.1096 43.3491 34.415 43.5141C34.7203 43.6791 34.9607 43.9072 35.1362 44.1985C35.3117 44.4863 35.3995 44.811 35.3995 45.1725C35.3995 45.534 35.3117 45.8604 35.1362 46.1517C34.9607 46.4395 34.7203 46.6659 34.415 46.8309C34.1096 46.9958 33.7657 47.0783 33.3831 47.0783ZM33.3831 46.3518C33.6007 46.3518 33.7972 46.3026 33.9727 46.2044C34.1482 46.1026 34.2851 45.9622 34.3834 45.7832C34.4852 45.6042 34.5361 45.4006 34.5361 45.1725C34.5361 44.9443 34.4852 44.7408 34.3834 44.5618C34.2851 44.3828 34.1482 44.2441 33.9727 44.1459C33.7972 44.0441 33.6007 43.9932 33.3831 43.9932C33.1655 43.9932 32.9689 44.0441 32.7934 44.1459C32.618 44.2441 32.4793 44.3828 32.3775 44.5618C32.2793 44.7408 32.2301 44.9443 32.2301 45.1725C32.2301 45.4006 32.2793 45.6042 32.3775 45.7832C32.4793 45.9622 32.618 46.1026 32.7934 46.2044C32.9689 46.3026 33.1655 46.3518 33.3831 46.3518Z" fill="#323264"/>
<path d="M42.0264 47.0151L42.0211 44.8039L40.9366 46.6255H40.5523L39.473 44.8513V47.0151H38.6728V43.3298H39.3782L40.7576 45.62L42.1159 43.3298H42.8161L42.8266 47.0151H42.0264Z" fill="#323264"/>
<path d="M47.9285 43.3298C48.2549 43.3298 48.5374 43.3842 48.7761 43.493C49.0183 43.6018 49.2043 43.7563 49.3342 43.9563C49.464 44.1564 49.529 44.3933 49.529 44.6671C49.529 44.9373 49.464 45.1742 49.3342 45.3778C49.2043 45.5779 49.0183 45.7323 48.7761 45.8411C48.5374 45.9464 48.2549 45.999 47.9285 45.999H47.1862V47.0151H46.3333V43.3298H47.9285ZM47.8811 45.3041C48.1373 45.3041 48.3321 45.2497 48.4655 45.1409C48.5989 45.0286 48.6656 44.8706 48.6656 44.6671C48.6656 44.46 48.5989 44.3021 48.4655 44.1932C48.3321 44.0809 48.1373 44.0248 47.8811 44.0248H47.1862V45.3041H47.8811Z" fill="#323264"/>
<path d="M55.0121 46.2254H53.3011L52.9747 47.0151H52.1008L53.7433 43.3298H54.5857L56.2335 47.0151H55.3385L55.0121 46.2254ZM54.7436 45.5779L54.1592 44.1669L53.5749 45.5779H54.7436Z" fill="#323264"/>
<path d="M62.6281 43.3298V47.0151H61.9279L60.0906 44.7776V47.0151H59.2482V43.3298H59.9537L61.7858 45.5673V43.3298H62.6281Z" fill="#323264"/>
<path d="M67.9013 45.7095V47.0151H67.0485V45.6989L65.6217 43.3298H66.5273L67.5117 44.9672L68.4963 43.3298H69.3333L67.9013 45.7095Z" fill="#323264"/>
<path fill-rule="evenodd" clip-rule="evenodd" d="M81.7283 15H84.9505L76.5557 41H73.3335L81.7283 15Z" fill="#F0145A"/>
<path d="M94.2502 34.1C93.2635 34.1 92.5035 33.8333 91.9702 33.3C91.4369 32.7667 91.1702 32.0133 91.1702 31.04V21.18H92.5902V30.96C92.5902 31.5733 92.7435 32.0467 93.0502 32.38C93.3702 32.7133 93.8235 32.88 94.4102 32.88C95.0369 32.88 95.5569 32.7 95.9702 32.34L96.4702 33.36C96.1902 33.6133 95.8502 33.8 95.4502 33.92C95.0635 34.04 94.6635 34.1 94.2502 34.1ZM89.2902 24.68V23.5H95.7902V24.68H89.2902ZM103.144 34.1C102.051 34.1 101.091 33.8733 100.264 33.42C99.4374 32.9533 98.7908 32.32 98.3241 31.52C97.8574 30.7067 97.6241 29.78 97.6241 28.74C97.6241 27.7 97.8441 26.78 98.2841 25.98C98.7374 25.18 99.3508 24.5533 100.124 24.1C100.911 23.6333 101.791 23.4 102.764 23.4C103.751 23.4 104.624 23.6267 105.384 24.08C106.157 24.52 106.764 25.1467 107.204 25.96C107.644 26.76 107.864 27.6867 107.864 28.74C107.864 28.8067 107.857 28.88 107.844 28.96C107.844 29.0267 107.844 29.1 107.844 29.18H98.7041V28.12H107.084L106.524 28.54C106.524 27.78 106.357 27.1067 106.024 26.52C105.704 25.92 105.264 25.4533 104.704 25.12C104.144 24.7867 103.497 24.62 102.764 24.62C102.044 24.62 101.397 24.7867 100.824 25.12C100.251 25.4533 99.8041 25.92 99.4841 26.52C99.1641 27.12 99.0041 27.8067 99.0041 28.58V28.8C99.0041 29.6 99.1774 30.3067 99.5241 30.92C99.8841 31.52 100.377 31.9933 101.004 32.34C101.644 32.6733 102.371 32.84 103.184 32.84C103.824 32.84 104.417 32.7267 104.964 32.5C105.524 32.2733 106.004 31.9267 106.404 31.46L107.204 32.38C106.737 32.94 106.151 33.3667 105.444 33.66C104.751 33.9533 103.984 34.1 103.144 34.1ZM117.041 34V31.68L116.981 31.3V27.42C116.981 26.5267 116.728 25.84 116.221 25.36C115.728 24.88 114.988 24.64 114.001 24.64C113.321 24.64 112.675 24.7533 112.061 24.98C111.448 25.2067 110.928 25.5067 110.501 25.88L109.861 24.82C110.395 24.3667 111.035 24.02 111.781 23.78C112.528 23.5267 113.315 23.4 114.141 23.4C115.501 23.4 116.548 23.74 117.281 24.42C118.028 25.0867 118.401 26.1067 118.401 27.48V34H117.041ZM113.421 34.1C112.635 34.1 111.948 33.9733 111.361 33.72C110.788 33.4533 110.348 33.0933 110.041 32.64C109.735 32.1733 109.581 31.64 109.581 31.04C109.581 30.4933 109.708 30 109.961 29.56C110.228 29.1067 110.655 28.7467 111.241 28.48C111.841 28.2 112.641 28.06 113.641 28.06H117.261V29.12H113.681C112.668 29.12 111.961 29.3 111.561 29.66C111.175 30.02 110.981 30.4667 110.981 31C110.981 31.6 111.215 32.08 111.681 32.44C112.148 32.8 112.801 32.98 113.641 32.98C114.441 32.98 115.128 32.8 115.701 32.44C116.288 32.0667 116.715 31.5333 116.981 30.84L117.301 31.82C117.035 32.5133 116.568 33.0667 115.901 33.48C115.248 33.8933 114.421 34.1 113.421 34.1ZM135.378 23.4C136.232 23.4 136.972 23.5667 137.598 23.9C138.238 24.22 138.732 24.7133 139.078 25.38C139.438 26.0467 139.618 26.8867 139.618 27.9V34H138.198V28.04C138.198 26.9333 137.932 26.1 137.398 25.54C136.878 24.9667 136.138 24.68 135.178 24.68C134.458 24.68 133.832 24.8333 133.298 25.14C132.778 25.4333 132.372 25.8667 132.078 26.44C131.798 27 131.658 27.68 131.658 28.48V34H130.238V28.04C130.238 26.9333 129.972 26.1 129.438 25.54C128.905 24.9667 128.158 24.68 127.198 24.68C126.492 24.68 125.872 24.8333 125.338 25.14C124.805 25.4333 124.392 25.8667 124.098 26.44C123.818 27 123.678 27.68 123.678 28.48V34H122.258V23.5H123.618V26.34L123.398 25.84C123.718 25.08 124.232 24.4867 124.938 24.06C125.658 23.62 126.505 23.4 127.478 23.4C128.505 23.4 129.378 23.66 130.098 24.18C130.818 24.6867 131.285 25.4533 131.498 26.48L130.938 26.26C131.245 25.4067 131.785 24.72 132.558 24.2C133.345 23.6667 134.285 23.4 135.378 23.4Z" fill="#323264"/>
</g>
<defs>
<clipPath id="clip0_59215_1391">
<rect width="141.95" height="57" fill="white"/>
</clipPath>
</defs>
</svg>
